<?xml version="1.0" encoding="utf-8"?>
<!-- Generator: Adobe Illustrator 22.1.0, SVG Export Plug-In . SVG Version: 6.00 Build 0)  -->
<svg version="1.1" xmlns="http://www.w3.org/2000/svg" xmlns:xlink="http://www.w3.org/1999/xlink" x="0px" y="0px"
	 viewBox="0 0 100.9 119.2" style="enable-background:new 0 0 100.9 119.2;" xml:space="preserve">
<style type="text/css">
	.st0{fill:#FFFFFF;}
	.st1{fill:none;stroke:#211915;stroke-width:0.849;stroke-miterlimit:10;}
	.st2{fill:none;stroke:#211915;stroke-width:8.490200e-02;stroke-miterlimit:10;}
	.st3{fill:#C7BBBA;}
	.st4{fill:#F9F5EF;}
	.st5{fill:#FFF4F0;}
	.st6{fill:#211915;}
	.st7{fill:#072249;}
	.st8{fill:#8BCDC6;}
	.st9{fill:#879DE4;}
	.st10{fill:#726044;}
	.st11{fill:#F9CABC;}
	.st12{fill:none;stroke:#726044;stroke-width:0.5101;stroke-miterlimit:10;}
	.st13{fill:#EEA892;}
	.st14{fill:#EFB7A4;}
	.st15{fill:none;stroke:#211915;stroke-width:0.2467;stroke-miterlimit:10;}
	.st16{fill:#282426;}
	.st17{fill:#DA9D9B;}
	.st18{fill:#282625;}
	.st19{fill:#ABD4BE;}
	.st20{fill:#F4BDB5;}
	.st21{fill:none;stroke:#282426;stroke-width:0.1834;stroke-miterlimit:10;}
	.st22{fill:#F4AD9D;}
	.st23{fill:#F2564D;}
	.st24{fill:#FCCA7A;}
	.st25{fill:#E5716E;}
	.st26{opacity:0.22;fill:#F7E4E4;}
	.st27{fill:#F9DEE5;}
	.st28{fill:none;stroke:#282625;stroke-width:0.3931;stroke-miterlimit:10;}
	.st29{fill:#1A1A1D;}
	.st30{fill:#192749;}
	.st31{opacity:0.7;fill:url(#);}
	.st32{fill:#FFFFFA;}
	.st33{fill:#03071E;}
	.st34{opacity:0.66;fill:#CE9580;}
	.st35{fill:#473D40;}
	.st36{fill:#D30D46;}
	.st37{fill:none;stroke:#89A8C5;stroke-width:0.1862;stroke-miterlimit:10;}
	.st38{fill:none;stroke:#473D40;stroke-width:1.4997;stroke-miterlimit:10;}
	.st39{fill:#89A8C5;}
	.st40{fill:#D8A936;}
	.st41{fill:none;stroke:#89A8C5;stroke-width:0.7811;stroke-linecap:round;stroke-miterlimit:10;}
	.st42{fill:#E50C40;}
	.st43{fill:#FCF0F0;}
	.st44{fill:#F4E2DC;}
	.st45{fill:none;stroke:#89A8C5;stroke-width:0.3828;stroke-miterlimit:10;}
	.st46{fill:#1E1D1D;}
	.st47{fill:none;stroke:#211915;stroke-width:0.2;stroke-miterlimit:10;}
	.st48{fill:#92AEF4;}
	.st49{fill:#7F97D3;}
	.st50{fill:none;stroke:#F4E2DC;stroke-width:0.7831;stroke-miterlimit:10;}
	.st51{fill:url(#);}
	.st52{fill:#81AA8A;}
	.st53{fill:#36635E;}
	.st54{fill:#00423F;}
	.st55{fill:#467C4D;}
	.st56{fill:none;stroke:#D8A936;stroke-width:0.1958;stroke-miterlimit:10;}
	.st57{fill:#E5201C;}
	.st58{fill:none;stroke:#211915;stroke-width:0.2075;stroke-miterlimit:10;}
	.st59{fill:#35211C;}
	.st60{fill:#9B746A;}
	.st61{fill:#161515;}
	.st62{fill:#6B3C09;}
	.st63{fill:#809FB7;}
	.st64{fill:#FEC75D;}
	.st65{fill:none;stroke:#FFF4F0;stroke-width:0.3882;stroke-miterlimit:10;}
	.st66{fill:none;stroke:#FEC75D;stroke-width:1.6048;stroke-linecap:round;stroke-miterlimit:10;}
	.st67{fill:none;stroke:#F4E2DC;stroke-width:0.495;stroke-miterlimit:10;}
	.st68{fill:none;stroke:#B2B2B2;stroke-width:0.2018;stroke-miterlimit:10;}
	.st69{fill:none;stroke:#473D40;stroke-width:1.5661;stroke-miterlimit:10;}
	.st70{fill:#E2D3CF;}
	.st71{fill:#EDEA91;}
	.st72{fill:none;stroke:#211915;stroke-width:0.198;stroke-miterlimit:10;}
	.st73{fill:#FCE896;}
	.st74{fill:#EA272B;}
	.st75{fill:#007D4A;}
	.st76{fill:#3E6057;}
	.st77{fill:#4B8073;}
	.st78{fill:#108540;}
	.st79{fill:#F4F2EC;}
	.st80{fill:#CE1348;}
	.st81{fill:none;stroke:#89A8C5;stroke-width:0.7658;stroke-linecap:round;stroke-miterlimit:10;}
	.st82{fill:#061B35;}
	.st83{fill:#E5D7D3;}
	.st84{fill:none;stroke:#89A8C5;stroke-width:0.192;stroke-miterlimit:10;}
	.st85{fill:none;stroke:#473D40;stroke-width:1.5462;stroke-miterlimit:10;}
	.st86{fill:none;stroke:#89A8C5;stroke-width:0.7719;stroke-linecap:round;stroke-miterlimit:10;}
	.st87{fill:none;stroke:#D8A936;stroke-width:0.2136;stroke-miterlimit:10;}
	.st88{fill:#24262B;}
	.st89{fill:#A56211;}
	.st90{fill:none;stroke:#211915;stroke-width:0.1965;stroke-miterlimit:10;}
	.st91{fill:none;stroke:#D8A936;stroke-width:0.1096;stroke-miterlimit:10;}
	.st92{fill:none;stroke:#D8A936;stroke-width:1.6866;stroke-miterlimit:10;}
	.st93{fill:none;stroke:#D8A936;stroke-width:0.6325;stroke-miterlimit:10;}
	.st94{fill:none;stroke:#D8A936;stroke-width:0.4217;stroke-miterlimit:10;}
	.st95{fill:none;stroke:#D8A936;stroke-width:1.0399;stroke-miterlimit:10;}
	.st96{fill:#006EB2;}
	.st97{fill:#724B21;}
	.st98{fill:#181B1C;}
	.st99{fill:none;stroke:#89A8C5;stroke-width:1.8838;stroke-miterlimit:10;}
	.st100{fill:none;stroke:#89A8C5;stroke-width:0.2021;stroke-miterlimit:10;}
	.st101{fill:none;stroke:#473D40;stroke-width:1.6276;stroke-miterlimit:10;}
	.st102{fill:none;stroke:#89A8C5;stroke-width:1.8838;stroke-linecap:round;stroke-miterlimit:10;}
	.st103{fill:none;stroke:#89A8C5;stroke-width:0.2355;stroke-miterlimit:10;}
	.st104{fill:none;stroke:#89A8C5;stroke-width:0.9419;stroke-miterlimit:10;}
	.st105{fill:#3D1208;}
	.st106{fill:#002338;}
</style>
<g id="BACKGROUND">
</g>
<g id="OBJECTS">
	<g>
		<g>
			<g>
				<path class="st1" d="M92.2,100.9c0,4.3-3.4,7.7-7.6,7.8c-4.3,0-7.7-3.4-7.8-7.6c0-4.3,3.4-7.7,7.6-7.8
					C88.6,93.3,92.1,96.7,92.2,100.9z"/>
				<g>
					<line class="st2" x1="78.4" y1="96.6" x2="90.9" y2="105.4"/>
					<line class="st2" x1="85.6" y1="93.4" x2="83.7" y2="108.6"/>
					<line class="st2" x1="77.3" y1="103.2" x2="92" y2="98.8"/>
				</g>
			</g>
			<g>
				<ellipse transform="matrix(0.505 -0.8631 0.8631 0.505 -69.8306 81.3474)" class="st1" cx="36" cy="101.6" rx="7.7" ry="7.7"/>
				<g>
					<line class="st2" x1="30.1" y1="96.9" x2="42.3" y2="106.2"/>
					<line class="st2" x1="37.4" y1="94" x2="35" y2="109.1"/>
					<line class="st2" x1="28.8" y1="103.5" x2="43.6" y2="99.5"/>
				</g>
			</g>
			<g>
				<path class="st3" d="M61.4,50.9l10.9-0.1l13.4,49.5c0.2,0.6-0.2,1.3-0.8,1.5l0,0c-0.6,0.2-1.3-0.2-1.5-0.8l-13-46.5l-9.5-0.6
					L61.4,50.9z"/>
				<path class="st3" d="M70.5,102.3l-0.4,0c-0.3,0-29,0-34,0c-0.4,0-0.7-0.3-0.7-0.7l0,0c0-0.4,0.3-0.7,0.7-0.7
					c4.7,0,29.7,0,33.6,0l4.5-8.3l7.8-0.8l0.2,1.4l-7,0.7L70.5,102.3z"/>
			</g>
		</g>
		<g>
			<g>
				<g>
					<path class="st4" d="M39,51.6c-0.3-3.7,1.6-21.3,8.8-23.3c1.3-0.4,3.6-0.9,4.8-0.2c0.8,0.5,1.2,1.4,1.4,2.2
						c1.1,3.8-0.5,15.4-2.5,21.6L39,51.6z"/>
				</g>
				<g>
					<g>
						<polygon class="st5" points="17.7,72.3 10.5,71.4 10.8,75.6 17.7,76.5 						"/>
						<path class="st6" d="M12.8,71.5l-2.9-1.3L6.6,80l0,0c2,0.6,4.1-0.5,4.7-2.5L12.8,71.5z"/>
					</g>
					<g>
						<g>
							<polygon class="st5" points="56.1,93 57.6,100 61.6,98.3 60,91.6 							"/>
							<path class="st6" d="M57,97.8l-0.2,3.2l10.3-0.1l0,0c-0.1-2.1-1.9-3.7-4-3.5L57,97.8z"/>
						</g>
						<g>
							<g>
								<path class="st7" d="M50.7,51.9c-3.5-0.1-13.4-0.3-13.4-0.3c-1.1,5.3-1.8,11.1-3.8,16.2c-0.4,1-0.9,2.1-1.8,2.7
									C31,71,30,71.2,29.1,71.3l-13.6,0.5c0.2,0.8,0.1,4.7,0.3,5.5c16.4,2.7,23.7-0.3,24.7-2.1c2-3.7,2.9-11.8,3.3-15.9
									C49,78.6,54.7,94.9,54.9,95.1c1.3-0.1,5.9-0.6,7.2-0.6C57.4,80.1,54.8,67.1,50.7,51.9z"/>
							</g>
						</g>
					</g>
				</g>
			</g>
			<g>
				<g>
					<g>
						<g>
							<g>
								<path class="st8" d="M52.6,45.8c-0.6,3.6-1.8,7.2-2.8,10.8c-0.7,2.8-1.1,4.1-5,3.3c-3.3-0.7-11.3-2.1-12-2.3
									c-3-0.9-4-1.6-3.2-5.3c0.7-3.2,1.6-7.4,2.9-9.4c0.3-0.4,0.8-1.7,0.8-1.7s1.7,0.3,2.5,0.5C41.4,43,47,44.4,52.6,45.8
									l-1.8-0.4"/>
							</g>
						</g>
						<path class="st9" d="M33.4,41.2c0,0-2,3.1-2.7,6.8c0,0,18.5,4.9,20.2,4.8c0,0,1.8-5,1.7-7.1C52.6,45.8,35.6,41.1,33.4,41.2z"
							/>
						<path class="st10" d="M35.8,47.7l-0.1,0.2c-0.4,0.6-0.7,1.3-0.9,2l-0.1,0.3l0.7,0.3l0.1-0.3c0.1-0.8,0.5-1.5,1-2.1l0,0
							L35.8,47.7z"/>
						<path class="st10" d="M44.6,49.8L44.5,50c-0.4,0.6-0.7,1.3-0.9,2l-0.1,0.3l0.7,0.3l0.1-0.3c0.1-0.8,0.5-1.5,1-2.1l0,0
							L44.6,49.8z"/>
					</g>
				</g>
				<g>
					<g>
						<path class="st11" d="M61.4,49.8c-2.2,0-10.6-1.5-12.1-1.9c-0.4-0.1-0.3-0.1-0.4-0.1c0,0-0.2-0.2,0,0
							c-0.3-0.4-0.3-0.4-0.4-1.1c-0.8-3.6,0.8-8.8,2.1-12.4c1.1-3-3.8-4.3-4.8-1.3c-0.7,2-1.3,4-1.7,6.1c-0.6,3.1-1.3,6.7-0.2,9.8
							c1.4,3.8,14.8,3.4,17.7,3.4L61.4,49.8z"/>
						<path class="st11" d="M63.8,50.4c0,0,1.3-0.2,1.7-0.6c0.6-0.8-2.8-0.1-2.8-0.1s1.5-0.7,1.1-1.2c-0.6-0.6-2.3,0.4-2.8,1.3
							c-1,1.8,0.6,3.1,2.3,3.7c0.6,0.2,1,0.3,1.1,0.3c0.6-0.1-1.4-1.6-1.4-1.6s2.1,0.8,2.5,0.7c0.9-0.2-1.9-1.6-1.9-1.6
							s2.3,0.5,2.7,0.2C66.8,50.8,63.8,50.4,63.8,50.4z"/>
					</g>
					<path class="st4" d="M42.8,40.4l7.6,1.1c0,0,3-9.2-1.2-10.7C49.2,30.8,43.7,29.6,42.8,40.4z"/>
				</g>
			</g>
		</g>
		<path class="st12" d="M33.9,41.3c0,0,7.4-14.1,15.3-10.5c5.8,2.7,3.1,14.9,3.1,14.9"/>
		<g>
			<g>
				<g>
					<path class="st13" d="M57.4,19.5l1.1-1.2c0.1-0.1,0-0.2-0.1-0.2l-1.6-0.3L57.4,19.5z"/>
					<g>
						<path class="st14" d="M49.9,30.3L49.9,30.3c1.1,0,1.9-0.8,2-1.9l0.1-5.8l-3.8-0.1l-0.1,5.8C48,29.4,48.9,30.3,49.9,30.3z"/>
						<path class="st11" d="M44.5,17.7c-0.4,4.4,3.1,8.9,5.6,8.9c3.8,0,7.1-3.5,7.3-7.1c0.3-4.5-1.4-8.2-5.7-8.7
							C47.4,10.3,44.9,13.3,44.5,17.7z"/>
					</g>
					<path class="st13" d="M53.7,19c-0.1,0.4,0.3,0.9,0.9,1c0.6,0.1,1.1-0.2,1.2-0.6c0.1-0.4-0.3-0.9-0.9-1
						C54.3,18.3,53.8,18.6,53.7,19z"/>
					<path class="st15" d="M57,16.7c0,0-0.9,2.4-2.8,0.2"/>
				</g>
			</g>
			<g>
				<path class="st16" d="M59.1,12.3c-0.5-0.2-1.7,0.2-1.7,0.2s1.2-1.1,0.9-1c-1,0.2-1.9,0.1-2.7,0c-1.6-1.2-4.1-2.4-7.2-1.2
					c-7.5,2.8-3.8,10.8-3.8,10.8c2.3-1.1,2-5.2,2-5.2c0-2.2,1.3-2.6,2.3-2.6c0.5,0,2.2,0.6,2.7,0.8C57.7,15.9,59.5,12.5,59.1,12.3z"
					/>
				<g>
					<path class="st11" d="M45.3,16.6c-0.2,0.6,0,1.3,0.5,1.6c0.5,0.2,1.1-0.1,1.4-0.8c0.2-0.6,0-1.3-0.5-1.6
						C46.2,15.6,45.6,16,45.3,16.6z"/>
					<path class="st17" d="M46.4,17.8c0,0,0.5-1.6-0.2-1.3c-1.1,0.4-0.1,0.6-0.1,0.6S46.4,17.1,46.4,17.8z"/>
				</g>
			</g>
		</g>
	</g>
</g>
<g id="DESIGNED_BY_FREEPIK">
</g>
</svg>
